<svg width="204" height="85" viewBox="0 0 204 85" fill="none" xmlns="http://www.w3.org/2000/svg">
<rect width="204" height="85" rx="16" fill="white"/>
<path d="M63.2578 46.1507C63.2578 49.1349 65.766 51.5121 69.4531 51.5121C72.5884 51.5121 75.3976 49.7165 75.523 46.5806C75.6484 44.5321 74.6953 42.3572 70.8076 41.2698L68.6756 40.6375C66.8195 40.1823 66.6188 39.1454 66.6188 38.6396C66.6188 37.4004 67.7726 36.5911 69.2023 36.5911C70.8076 36.5911 71.7858 37.4763 71.7858 38.8672H74.9963C74.9963 35.6301 72.5131 33.607 69.2525 33.607C66.067 33.607 63.4334 35.6554 63.4334 38.7155C63.4334 40.2329 64.0354 42.4837 67.7977 43.5711L69.9297 44.1275C71.5851 44.5827 72.3877 45.3667 72.3125 46.5047C72.2372 47.6934 71.1838 48.6038 69.4531 48.6038C67.597 48.6038 66.5436 47.4405 66.4683 46.1507H63.2578Z" fill="#6C5ECF"/>
<path d="M82.0761 34.922H79.0412V39.4236H76.9092V41.902H79.0412V51.2339H82.0761V41.902H84.5593V39.4236H82.0761V34.922Z" fill="#6C5ECF"/>
<path d="M94.4313 45.7208C94.4313 47.7692 93.1772 48.4773 91.898 48.4773C90.8194 48.4773 89.6656 47.7692 89.6656 45.8472V39.4236H86.5805V46.4036C86.5805 49.7418 88.4115 51.4868 91.1957 51.4868C92.3745 51.4868 93.7791 50.8293 94.4313 49.5648V51.2339H97.4913V39.4236H94.4313V45.7208Z" fill="#6C5ECF"/>
<path d="M109.54 51.2339H112.575V33H109.54V40.9916C108.863 39.8029 107.433 39.1707 105.853 39.1707C102.768 39.1707 100.109 41.5732 100.109 45.3414C100.109 49.0843 102.768 51.4868 105.853 51.4868C107.383 51.4868 108.863 50.8293 109.54 49.6407V51.2339ZM109.49 45.2908C109.49 47.2634 108.035 48.5279 106.355 48.5279C104.649 48.5279 103.27 47.2381 103.27 45.2908C103.27 43.3688 104.649 42.1043 106.355 42.1043C107.96 42.1043 109.49 43.2677 109.49 45.2908Z" fill="#6C5ECF"/>
<path d="M126.783 39.4236H123.522L120.588 46.7829L117.678 39.4236H114.417L118.982 50.3235L116.299 57H119.534L126.783 39.4236Z" fill="#6C5ECF"/>
<path d="M125.669 36.7682H130.535V51.2339H133.77V36.7682H138.636V33.8093H125.669V36.7682Z" fill="#6C5ECF"/>
<path d="M144.284 48.4521C142.579 48.4521 141.224 47.2129 141.224 45.2908C141.224 43.3941 142.579 42.2055 144.284 42.2055C145.99 42.2055 147.344 43.3941 147.344 45.2908C147.344 47.2129 145.99 48.4521 144.284 48.4521ZM144.284 51.4615C147.595 51.4615 150.379 49.0084 150.379 45.2908C150.379 41.5479 147.595 39.1707 144.284 39.1707C140.973 39.1707 138.189 41.5479 138.189 45.2908C138.189 49.0084 140.973 51.4615 144.284 51.4615Z" fill="#6C5ECF"/>
<path d="M156.058 47.0611C156.058 43.9252 156.911 42.0537 158.993 42.0537C159.294 42.0537 160.046 42.0537 160.773 42.3825L161.3 39.6006C160.824 39.3224 160.197 39.1707 159.369 39.1707C158.04 39.1707 156.66 40.0558 156.058 42.2055V39.4236H152.998V51.2339H156.058V47.0611Z" fill="#6C5ECF"/>
<path d="M162.187 45.2908C162.187 49.0084 165.147 51.4868 168.508 51.4868C170.515 51.4868 172.295 50.6523 173.399 49.1602L170.941 47.3393C170.364 48.1233 169.486 48.5279 168.508 48.5279C166.802 48.5279 165.222 47.2129 165.222 45.2908C165.222 43.3688 166.802 42.1549 168.508 42.1549C169.486 42.1549 170.364 42.5342 170.941 43.3182L173.374 41.4721C172.27 39.98 170.49 39.1707 168.508 39.1707C165.147 39.1707 162.187 41.5479 162.187 45.2908Z" fill="#6C5ECF"/>
<path d="M178.905 44.9368C178.905 42.8883 180.435 42.1802 181.715 42.1802C182.969 42.1802 184.198 43.1159 184.198 44.8103V51.2339H187.258V44.6586C187.258 41.1939 185.577 39.1707 182.542 39.1707C181.389 39.1707 179.432 39.8282 178.905 41.2445V33H175.845V51.2339H178.905V44.9368Z" fill="#6C5ECF"/>
<g filter="url(#filter0_b_558_32441)">
<path d="M24.9307 23L36.1487 23C38.3717 23 40.4944 23.9249 42.0079 25.553L47.8592 31.847C49.2352 33.3271 50 35.2731 50 37.294L50 54.02C50 58.98 46.0198 63 41.1089 63H25.3465C20.198 63 16 58.78 16 53.58L16 32.02C16 27.06 20 23 24.9307 23Z" fill="url(#paint0_linear_558_32441)"/>
<path d="M36.1487 22.5L24.9307 22.5C19.7185 22.5 15.5 26.7893 15.5 32.02L15.5 53.58C15.5 59.0528 19.9186 63.5 25.3465 63.5H41.1089C46.3006 63.5 50.5 59.2514 50.5 54.02L50.5 37.294C50.5 35.1468 49.6874 33.0792 48.2254 31.5066L42.3741 25.2126C40.766 23.4827 38.5106 22.5 36.1487 22.5Z" stroke="url(#paint1_linear_558_32441)" stroke-linecap="round" stroke-linejoin="round"/>
</g>
<path fill-rule="evenodd" clip-rule="evenodd" d="M29.1056 36.6577H22.4126C21.6007 36.6577 20.9274 37.3377 20.9274 38.1577C20.9274 38.9777 21.6007 39.6377 22.4126 39.6377H29.1056C29.9175 39.6377 30.5908 38.9777 30.5908 38.1577C30.5908 37.3377 29.9175 36.6577 29.1056 36.6577ZM22.4122 49.6373H33.1844C33.9963 49.6373 34.6696 48.9573 34.6696 48.1373C34.6696 47.3173 33.9963 46.6573 33.1844 46.6573H22.4122C21.6003 46.6573 20.927 47.3173 20.927 48.1373C20.927 48.9573 21.6003 49.6373 22.4122 49.6373Z" fill="#978AF6"/>
<g filter="url(#filter1_bd_558_32441)">
<path d="M41.4674 35.7472C42.8476 35.7612 44.7665 35.7672 46.3942 35.7612C47.2278 35.7592 47.6516 34.7532 47.0734 34.1472C44.9823 31.9512 41.2417 28.0212 39.1011 25.7732C38.509 25.1512 37.4734 25.5792 37.4734 26.4412V31.7132C37.4734 33.9252 39.2773 35.7472 41.4674 35.7472Z" fill="#978AF6"/>
</g>
<path d="M54.4281 45.5653L42.2346 57.7949C41.6005 58.4109 40.7671 58.7551 39.8974 58.7551H35.6396C35.4041 58.7551 35.1867 58.6645 35.0236 58.5015C34.8606 58.3384 34.7881 58.121 34.7881 57.8855L34.8968 53.5915C34.9149 52.74 35.2592 51.9428 35.8571 51.3449L44.4994 42.7026C44.6443 42.5577 44.898 42.5577 45.0429 42.7026L48.0686 45.7102C48.2679 45.9095 48.5578 46.0363 48.8658 46.0363C49.5362 46.0363 50.0616 45.4928 50.0616 44.8405C50.0616 44.5144 49.9348 44.2245 49.7355 44.0071C49.6812 43.9346 46.8004 41.072 46.8004 41.072C46.6192 40.8908 46.6192 40.5828 46.8004 40.4017L48.0143 39.1696C49.1376 38.0463 50.9494 38.0463 52.0727 39.1696L54.4281 41.525C55.5333 42.6302 55.5333 44.442 54.4281 45.5653Z" fill="#F7936F"/>
<defs>
<filter id="filter0_b_558_32441" x="-9" y="-2" width="84" height="90" filterUnits="userSpaceOnUse" color-interpolation-filters="sRGB">
<feFlood flood-opacity="0" result="BackgroundImageFix"/>
<feGaussianBlur in="BackgroundImage" stdDeviation="12"/>
<feComposite in2="SourceAlpha" operator="in" result="effect1_backgroundBlur_558_32441"/>
<feBlend mode="normal" in="SourceGraphic" in2="effect1_backgroundBlur_558_32441" result="shape"/>
</filter>
<filter id="filter1_bd_558_32441" x="22.4734" y="10.4783" width="39.8667" height="40.2852" filterUnits="userSpaceOnUse" color-interpolation-filters="sRGB">
<feFlood flood-opacity="0" result="BackgroundImageFix"/>
<feGaussianBlur in="BackgroundImage" stdDeviation="7.5"/>
<feComposite in2="SourceAlpha" operator="in" result="effect1_backgroundBlur_558_32441"/>
<feColorMatrix in="SourceAlpha" type="matrix" values="0 0 0 0 0 0 0 0 0 0 0 0 0 0 0 0 0 0 127 0" result="hardAlpha"/>
<feOffset dx="5" dy="5"/>
<feGaussianBlur stdDeviation="5"/>
<feColorMatrix type="matrix" values="0 0 0 0 0.577356 0 0 0 0 0.359375 0 0 0 0 0.9375 0 0 0 0.25 0"/>
<feBlend mode="normal" in2="effect1_backgroundBlur_558_32441" result="effect2_dropShadow_558_32441"/>
<feBlend mode="normal" in="SourceGraphic" in2="effect2_dropShadow_558_32441" result="shape"/>
</filter>
<linearGradient id="paint0_linear_558_32441" x1="50" y1="23" x2="10.5225" y2="56.5559" gradientUnits="userSpaceOnUse">
<stop stop-color="#6C5ECF"/>
<stop offset="1" stop-color="#503FC8"/>
</linearGradient>
<linearGradient id="paint1_linear_558_32441" x1="21.4122" y1="27.6601" x2="47.4796" y2="55.1023" gradientUnits="userSpaceOnUse">
<stop stop-color="white" stop-opacity="0.25"/>
<stop offset="1" stop-color="white" stop-opacity="0"/>
</linearGradient>
</defs>
</svg>
