<svg width="24" height="24" viewBox="0 0 24 24" fill="none" xmlns="http://www.w3.org/2000/svg">
<circle cx="12" cy="12" r="11.5" fill="#5F65F6"/>
<circle cx="12" cy="12" r="11.5" fill="white" fill-opacity="0.9"/>
<circle cx="12" cy="12" r="11.5" stroke="#5F65F6"/>
<circle cx="12" cy="12" r="11.5" stroke="white" stroke-opacity="0.55"/>
<path d="M6.75 17.2496H7.8105L14.796 10.2641L13.7355 9.20357L6.75 16.1891V17.2496ZM18.75 18.7496H5.25V15.5673L15.3263 5.49107C15.4669 5.35047 15.6576 5.27148 15.8565 5.27148C16.0554 5.27148 16.2461 5.35047 16.3868 5.49107L18.5085 7.61282C18.6491 7.75347 18.7281 7.9442 18.7281 8.14307C18.7281 8.34195 18.6491 8.53268 18.5085 8.67332L9.93225 17.2496H18.75V18.7496ZM14.796 8.14307L15.8565 9.20357L16.917 8.14307L15.8565 7.08257L14.796 8.14307Z" fill="#5F65F6"/>
</svg>
